<svg width="64" height="64" viewBox="0 0 64 64" fill="none" xmlns="http://www.w3.org/2000/svg">
<g clip-path="url(#clip0_2006_102)">
<rect width="64" height="64" rx="8" fill="black"/>
<path d="M32 64C49.6731 64 64 49.6731 64 32C64 14.3269 49.6731 0 32 0C14.3269 0 0 14.3269 0 32C0 49.6731 14.3269 64 32 64Z" fill="black"/>
<path d="M20.5 45.832L25.106 37.86L29.708 29.916L34.284 21.944L35.044 20.68L35.378 21.944L36.782 27.192L35.21 29.916L30.608 37.86L26.032 45.832H31.532L36.136 37.86L38.522 33.734L39.646 37.86L41.778 45.832H46.718L44.586 37.86L42.452 29.916L41.892 27.866L45.316 21.944H40.32L40.15 21.354L38.41 14.842L38.186 14H33.386L33.274 14.168L28.782 21.944L24.178 29.916L19.604 37.86L15 45.832H20.5Z" fill="white"/>
</g>
<rect x="0.5" y="0.5" width="63" height="63" rx="7.5" stroke="#2E2E2E"/>
<defs>
<clipPath id="clip0_2006_102">
<rect width="64" height="64" rx="8" fill="white"/>
</clipPath>
</defs>
</svg>
