<svg width="64" height="64" viewBox="0 0 64 64" fill="none" xmlns="http://www.w3.org/2000/svg">
<path d="M32 64C49.6731 64 64 49.6731 64 32C64 14.3269 49.6731 0 32 0C14.3269 0 0 14.3269 0 32C0 49.6731 14.3269 64 32 64Z" fill="#F7931A"/>
<path d="M46.3785 28.04C47.0065 23.848 43.8125 21.594 39.4485 20.09L40.8645 14.41L37.4085 13.55L36.0285 19.08C35.1205 18.852 34.1885 18.64 33.2585 18.428L34.6485 12.862L31.1925 12L29.7765 17.678C29.0245 17.506 28.2845 17.338 27.5685 17.158L27.5725 17.14L22.8045 15.95L21.8845 19.642C21.8845 19.642 24.4505 20.23 24.3965 20.266C25.7965 20.616 26.0485 21.542 26.0065 22.278L24.3945 28.748C24.4905 28.772 24.6145 28.808 24.7545 28.862L24.3885 28.772L22.1285 37.836C21.9565 38.26 21.5225 38.898 20.5425 38.656C20.5785 38.706 18.0305 38.03 18.0305 38.03L16.3145 41.986L20.8145 43.108C21.6505 43.318 22.4705 43.538 23.2765 43.744L21.8465 49.488L25.3005 50.348L26.7165 44.668C27.6605 44.922 28.5765 45.158 29.4725 45.382L28.0605 51.038L31.5165 51.898L32.9465 46.166C38.8425 47.282 43.2745 46.832 45.1405 41.5C46.6445 37.208 45.0665 34.73 41.9645 33.116C44.2245 32.596 45.9245 31.11 46.3785 28.04ZM38.4785 39.116C37.4125 43.41 30.1825 41.088 27.8385 40.506L29.7385 32.896C32.0825 33.482 39.5965 34.64 38.4785 39.116ZM39.5485 27.978C38.5745 31.884 32.5585 29.898 30.6085 29.412L32.3285 22.512C34.2785 22.998 40.5645 23.904 39.5485 27.978Z" fill="white"/>
</svg>
