<svg width="64" height="64" viewBox="0 0 64 64" fill="none" xmlns="http://www.w3.org/2000/svg">
<g clip-path="url(#clip0_2006_87)">
<rect width="64" height="64" rx="8" fill="#C3A634"/>
<path d="M32 64C49.6731 64 64 49.6731 64 32C64 14.3269 49.6731 0 32 0C14.3269 0 0 14.3269 0 32C0 49.6731 14.3269 64 32 64Z" fill="#C3A634"/>
<path fill-rule="evenodd" clip-rule="evenodd" d="M26.496 29.22H35.124V33.792H26.496V43.428H31.938C34.092 43.428 35.854 43.138 37.226 42.554C38.598 41.972 39.674 41.166 40.456 40.134C41.2558 39.0608 41.8003 37.8193 42.048 36.504C42.337 35.0203 42.4776 33.5115 42.468 32C42.4776 30.4885 42.337 28.9797 42.048 27.496C41.8006 26.1806 41.2561 24.939 40.456 23.866C39.674 22.834 38.596 22.028 37.226 21.446C35.854 20.862 34.092 20.572 31.938 20.572H26.496V29.222V29.22ZM20.964 33.792H18V29.222H20.964V16H34.062C36.482 16 38.576 16.42 40.346 17.254C42.116 18.092 43.56 19.234 44.682 20.684C45.802 22.132 46.636 23.828 47.182 25.77C47.728 27.712 48 29.79 48 32C48.0137 34.1044 47.7378 36.2008 47.18 38.23C46.636 40.17 45.802 41.868 44.68 43.316C43.56 44.766 42.116 45.908 40.346 46.746C38.576 47.582 36.48 48 34.062 48H20.964V33.792Z" fill="white"/>
</g>
<defs>
<clipPath id="clip0_2006_87">
<rect width="64" height="64" rx="8" fill="white"/>
</clipPath>
</defs>
</svg>
