<svg width="64" height="64" viewBox="0 0 64 64" fill="none" xmlns="http://www.w3.org/2000/svg">
<g clip-path="url(#clip0_2006_117)">
<rect width="64" height="64" rx="8" fill="#E6007A"/>
<path d="M32 64C49.6731 64 64 49.6731 64 32C64 14.3269 49.6731 0 32 0C14.3269 0 0 14.3269 0 32C0 49.6731 14.3269 64 32 64Z" fill="#E6007A"/>
<path d="M32.5443 13.25C25.1303 13.25 19.0723 19.274 19.0723 26.722C19.0723 28.22 19.3203 29.682 19.7843 31.106C19.9485 31.5761 20.2908 31.963 20.7374 32.1833C21.184 32.4036 21.6993 32.4398 22.1723 32.284C22.642 32.1194 23.0284 31.7769 23.2483 31.3304C23.4683 30.8838 23.5041 30.3687 23.3483 29.896C22.9572 28.7858 22.7761 27.6125 22.8143 26.436C22.9563 21.412 27.0203 17.276 32.0463 17.028C33.3628 16.9588 34.6796 17.1582 35.9167 17.614C37.1537 18.0697 38.2851 18.7724 39.242 19.6792C40.199 20.586 40.9614 21.678 41.4831 22.8887C42.0047 24.0995 42.2746 25.4037 42.2763 26.722C42.2733 29.2013 41.3234 31.5859 39.6208 33.3881C37.9182 35.1904 35.5914 36.2742 33.1163 36.418C33.1163 36.418 31.2263 36.524 30.3003 36.668C29.8363 36.738 29.4803 36.81 29.2303 36.846C29.1223 36.882 29.0163 36.774 29.0503 36.666L29.3723 35.1L31.1183 27.044C31.22 26.5623 31.1275 26.0599 30.8609 25.6461C30.5942 25.2322 30.175 24.9404 29.6943 24.834C29.2123 24.7323 28.7097 24.8251 28.2958 25.0921C27.8819 25.3592 27.5902 25.7789 27.4843 26.26C27.4843 26.26 23.2783 45.864 23.2423 46.078C23.1406 46.56 23.2333 47.0626 23.5004 47.4765C23.7675 47.8904 24.1872 48.1821 24.6683 48.288C25.1502 48.3897 25.6529 48.2969 26.0668 48.0299C26.4807 47.7628 26.7723 47.3431 26.8783 46.862C26.9123 46.648 27.4843 44.046 27.4843 44.046C27.6867 43.092 28.1788 42.2238 28.8934 41.5601C29.6079 40.8964 30.51 40.4696 31.4763 40.338C32.1754 40.2614 32.8762 40.2021 33.5783 40.16C36.9622 39.8963 40.1224 38.3664 42.4282 35.8756C44.734 33.3848 46.0159 30.1162 46.0183 26.722C46.0183 19.274 39.9583 13.25 32.5443 13.25ZM33.5063 44.26C33.2161 44.1974 32.9163 44.193 32.6244 44.2471C32.3325 44.3012 32.0542 44.4127 31.8057 44.5751C31.5572 44.7375 31.3433 44.9476 31.1766 45.1932C31.0098 45.4388 30.8935 45.7151 30.8343 46.006C30.5843 47.218 31.3343 48.43 32.5803 48.68C32.8708 48.7429 33.1708 48.7474 33.4631 48.6933C33.7553 48.6393 34.0339 48.5277 34.2827 48.365C34.5315 48.2024 34.7455 47.992 34.9123 47.746C35.079 47.5 35.1953 47.2233 35.2543 46.932C35.5023 45.686 34.7543 44.508 33.5063 44.26Z" fill="white"/>
</g>
<defs>
<clipPath id="clip0_2006_117">
<rect width="64" height="64" rx="8" fill="white"/>
</clipPath>
</defs>
</svg>
