<svg width="187" height="16" viewBox="0 0 187 16" fill="none" xmlns="http://www.w3.org/2000/svg">
<path d="M182.458 14.9877H174.422C174.039 14.9877 173.698 14.9045 173.399 14.7382C173.116 14.5718 172.866 14.3638 172.65 14.1143C172.45 13.8647 172.267 13.5902 172.101 13.2907C171.951 12.9746 171.827 12.6751 171.727 12.3923L170.279 8.02495L168.008 14.9877H161.021L163.341 7.8253H177.666L177.741 8.12477L177.841 7.8253H184.779L182.458 14.9877ZM163.391 7.70052L163.791 6.45271H177.292L177.641 7.70052H163.391ZM163.866 6.20315L164.24 5.05516H176.918L177.217 6.20315H163.866ZM164.365 4.68082L164.714 3.65762H176.543L176.818 4.68082H164.365ZM175.894 2.26007C175.994 2.42644 176.086 2.5845 176.169 2.73424C176.252 2.88397 176.327 3.03371 176.394 3.18345H164.864L165.163 2.26007H175.894ZM177.891 7.70052L178.29 6.45271H185.228L184.829 7.70052H177.891ZM178.365 6.20315L178.739 5.05516H185.677L185.303 6.20315H178.365ZM178.864 4.68082L179.214 3.65762H186.151L185.802 4.68082H178.864ZM165.363 1.66112L165.563 0.987305H174.148C174.364 0.987305 174.58 1.05385 174.796 1.18695C175.013 1.32005 175.221 1.47811 175.42 1.66112H165.363ZM179.363 3.18345L179.663 2.26007H186.601L186.301 3.18345H179.363ZM180.062 0.987305H187L186.8 1.66112H179.862L180.062 0.987305Z" fill="white"/>
<path d="M159.528 14.9877H152.54L154.861 7.8253H161.849L159.528 14.9877ZM154.911 7.70052L155.31 6.45271H162.298L161.899 7.70052H154.911ZM155.385 6.20315L155.759 5.05516H162.747L162.373 6.20315H155.385ZM155.884 4.68082L156.234 3.65762H163.221L162.872 4.68082H155.884ZM156.383 3.18345L156.683 2.26007H163.67L163.371 3.18345H156.383ZM157.082 0.987305H164.07L163.87 1.66112H156.882L157.082 0.987305Z" fill="white"/>
<path d="M129.16 15.0127L136.996 7.8253H144.957L137.346 15.0127H129.16ZM151.047 14.9877H144.084L146.405 7.8253H153.368L151.047 14.9877ZM138.768 6.20315L140.016 5.05516H154.266L153.892 6.20315H138.768ZM140.415 4.68082L141.563 3.65762H154.74L154.391 4.68082H140.415ZM142.062 3.18345L142.961 2.35989C142.961 2.35989 142.969 2.35158 142.986 2.33494C143.002 2.3183 143.027 2.29334 143.061 2.26007H155.189L154.89 3.18345H142.062ZM146.455 6.45271C146.405 6.46934 146.363 6.4943 146.33 6.52758C146.297 6.56085 146.247 6.61076 146.18 6.67731L145.082 7.70052H137.146L138.494 6.45271H146.455ZM146.455 7.70052L146.804 6.6274C146.804 6.61076 146.771 6.58581 146.704 6.55253C146.638 6.51926 146.588 6.48598 146.555 6.45271H153.817L153.417 7.70052H146.455ZM143.834 1.66112C144.084 1.47811 144.342 1.32005 144.608 1.18695C144.874 1.05385 145.107 0.987305 145.307 0.987305H155.589L155.389 1.66112H143.834Z" fill="white"/>
<path d="M127.99 14.9877H120.978L122.675 9.79683H119.306L117.609 14.9877H110.621L112.942 7.8253H130.311L127.99 14.9877ZM112.992 7.70052L113.391 6.45271H130.761L130.361 7.70052H112.992ZM123.823 6.20315L124.197 5.05516H131.21L130.836 6.20315H123.823ZM113.466 6.20315L113.84 5.05516H120.828L120.454 6.20315H113.466ZM124.322 4.68082L124.671 3.65762H131.684L131.335 4.68082H124.322ZM113.965 4.68082L114.315 3.65762H121.302L120.953 4.68082H113.965ZM124.821 3.18345L125.121 2.26007H132.133L131.834 3.18345H124.821ZM114.464 3.18345L114.764 2.26007H121.751L121.452 3.18345H114.464ZM125.52 0.987305H132.533L132.333 1.66112H125.32L125.52 0.987305ZM114.963 1.66112L115.163 0.987305H122.151L121.951 1.66112H114.963Z" fill="white"/>
<path d="M101.435 10.7452C101.401 10.9115 101.418 11.053 101.485 11.1694C101.551 11.2692 101.651 11.3192 101.784 11.3192H110.169L108.971 14.9877H96.3186C95.9359 14.9877 95.5782 14.9045 95.2455 14.7382C94.9294 14.5551 94.6549 14.3222 94.4219 14.0394C94.2057 13.7565 94.0559 13.4321 93.9727 13.0661C93.9062 12.7001 93.9395 12.3174 94.0726 11.9181L95.3952 7.8253H102.383L101.435 10.7452ZM112.49 4.65586H103.955C103.872 4.65586 103.814 4.66418 103.781 4.68082H96.4184L96.4683 4.55604C96.5349 4.30648 96.6763 4.007 96.8926 3.65762H112.815L112.49 4.65586ZM97.217 3.18345C97.3501 3.01707 97.4832 2.85902 97.6163 2.70928C97.7661 2.55954 97.9241 2.40981 98.0905 2.26007H113.264L112.964 3.18345H97.217ZM101.035 0.987305H113.663L113.464 1.66112H98.914C99.2634 1.46147 99.6128 1.30342 99.9622 1.18695C100.328 1.05385 100.686 0.987305 101.035 0.987305ZM95.4451 7.70052L95.8444 6.45271H102.832L102.433 7.70052H95.4451ZM103.356 5.05516C103.323 5.12171 103.29 5.18826 103.256 5.25481C103.223 5.30472 103.198 5.35464 103.182 5.40455L102.907 6.20315H95.9193L96.2937 5.05516H103.356Z" fill="white"/>
<path d="M83.0667 12.567L82.6424 10.8949L81.3198 14.9877H74.332L76.653 7.8253H88.7567C88.6735 8.27451 88.7068 8.70708 88.8565 9.12302C89.0063 9.53895 89.2225 9.9133 89.5054 10.246C89.8049 10.5622 90.1376 10.82 90.5036 11.0197C90.8863 11.2027 91.2773 11.2942 91.6766 11.2942H92.7746L91.5767 14.9877H85.7869C85.4542 14.9877 85.1464 14.9045 84.8635 14.7382C84.5807 14.5718 84.3228 14.3721 84.0899 14.1392C83.8736 13.8896 83.674 13.6234 83.4909 13.3406C83.3246 13.0578 83.1832 12.7999 83.0667 12.567ZM89.5553 6.45271C89.1893 6.81873 88.9563 7.1598 88.8565 7.47591L88.7817 7.70052H76.7029L77.1022 6.45271H89.5553ZM84.2396 6.02845C84.3727 5.86208 84.4892 5.70402 84.589 5.55429C84.7055 5.38791 84.8219 5.22154 84.9384 5.05516H91.427C91.1442 5.2049 90.8697 5.37959 90.6035 5.57924C90.3539 5.76225 90.0877 5.97022 89.8049 6.20315H77.177L77.5514 5.05516H84.5391L84.2396 6.02845ZM85.2379 4.68082C85.3876 4.49781 85.529 4.32311 85.6621 4.15674C85.7952 3.99036 85.9533 3.82399 86.1363 3.65762H95.2703L94.9209 4.68082H92.55H92.4752H85.2379ZM86.7103 3.18345V3.13354C86.7768 3.06699 86.9016 2.95884 87.0846 2.80911C87.2676 2.64273 87.5006 2.45972 87.7834 2.26007H95.7195L95.42 3.18345H86.7103ZM77.6762 4.68082L78.0255 3.65762H85.0133L84.6639 4.68082H77.6762ZM78.1753 3.18345L78.4748 2.26007H85.4625L85.163 3.18345H78.1753ZM78.6744 1.66112L78.8741 0.987305H85.8618L85.6621 1.66112H78.6744ZM88.7567 1.66112C89.0728 1.49475 89.3972 1.35333 89.73 1.23687C90.0794 1.10377 90.4454 1.02058 90.8281 0.987305H96.1188L95.9191 1.66112H88.7567Z" fill="white"/>
<path d="M60.0286 14.9877C59.6459 14.9877 59.2882 14.9045 58.9555 14.7382C58.6393 14.5551 58.3648 14.3222 58.1319 14.0394C57.9156 13.7565 57.7659 13.4321 57.6827 13.0661C57.6161 12.7001 57.6494 12.3174 57.7825 11.9181L59.1052 7.8253H66.0929L65.1446 10.7452C65.1113 10.9115 65.128 11.053 65.1945 11.1694C65.261 11.2692 65.3609 11.3192 65.494 11.3192H73.8792L72.6813 14.9877H60.0286ZM60.1783 4.55604C60.2449 4.30648 60.3863 4.007 60.6026 3.65762H76.5246L76.2002 4.65586H67.6652C67.582 4.65586 67.5237 4.66418 67.4905 4.68082H60.1284L60.1783 4.55604ZM60.927 3.18345C61.0601 3.01707 61.1932 2.85902 61.3263 2.70928C61.476 2.55954 61.6341 2.40981 61.8005 2.26007H76.9738L76.6743 3.18345H60.927ZM77.3731 0.987305L77.1735 1.66112H62.624C62.9734 1.46147 63.3228 1.30342 63.6722 1.18695C64.0382 1.05385 64.3959 0.987305 64.7453 0.987305H77.3731ZM59.1551 7.70052L59.5544 6.45271H66.5421L66.1428 7.70052H59.1551ZM66.8915 5.40455L66.617 6.20315H59.6293L60.0036 5.05516H67.0662C67.0329 5.12171 66.9997 5.18826 66.9664 5.25481C66.9331 5.30472 66.9082 5.35464 66.8915 5.40455Z" fill="white"/>
<path d="M56.2828 11.9181C56.1497 12.3174 55.9251 12.7001 55.609 13.0661C55.2928 13.4321 54.9351 13.7565 54.5358 14.0394C54.1365 14.3222 53.7123 14.5551 53.2631 14.7382C52.8305 14.9045 52.4229 14.9877 52.0402 14.9877H40.4106C40.028 14.9877 39.6703 14.9045 39.3375 14.7382C39.0214 14.5551 38.7469 14.3222 38.514 14.0394C38.2977 13.7565 38.148 13.4321 38.0648 13.0661C37.9982 12.7001 38.0315 12.3174 38.1646 11.9181L39.4873 7.8253H46.45L45.5017 10.7452C45.4851 10.8284 45.4851 10.9448 45.5017 11.0946C45.535 11.2443 45.6598 11.3192 45.876 11.3192H48.9706C49.0704 11.3192 49.1952 11.2526 49.345 11.1195C49.4947 10.9698 49.6112 10.845 49.6943 10.7452L50.6427 7.8253H57.6055L56.2828 11.9181ZM58.8283 3.65762C58.8283 3.95709 58.7784 4.25656 58.6786 4.55604L58.6287 4.68082H51.2416C51.225 4.68082 51.2084 4.68082 51.1917 4.68082C51.1917 4.66418 51.1751 4.65586 51.1418 4.65586H47.9973C47.9807 4.65586 47.9641 4.66418 47.9474 4.68082C47.9308 4.68082 47.9141 4.68082 47.8975 4.68082H40.5105L40.5604 4.55604C40.6269 4.30648 40.7684 4.007 40.9846 3.65762H58.8283ZM58.5288 2.26007C58.612 2.40981 58.6703 2.55954 58.7035 2.70928C58.7368 2.85902 58.7701 3.01707 58.8034 3.18345H41.3091C41.4422 3.01707 41.5753 2.85902 41.7084 2.70928C41.8581 2.55954 42.0162 2.40981 42.1825 2.26007H58.5288ZM45.1274 0.987305H56.4076C56.7569 0.987305 57.0647 1.05385 57.3309 1.18695C57.6138 1.30342 57.8717 1.46147 58.1046 1.66112H43.0061C43.3555 1.46147 43.7049 1.30342 44.0543 1.18695C44.4203 1.05385 44.778 0.987305 45.1274 0.987305ZM39.5372 7.70052L39.9365 6.45271H46.8993L46.5 7.70052H39.5372ZM50.6926 7.70052L51.0919 6.45271H58.0547L57.6554 7.70052H50.6926ZM47.2237 5.45446L46.9741 6.20315H40.0114L40.3857 5.05516H47.4233C47.3734 5.13835 47.3318 5.21322 47.2986 5.27977C47.2819 5.32968 47.257 5.38791 47.2237 5.45446ZM51.1668 6.20315L51.4163 5.45446C51.4829 5.30472 51.4912 5.17162 51.4413 5.05516H58.5039L58.1295 6.20315H51.1668Z" fill="white"/>
<path d="M22.4891 14.9877C22.0565 14.9877 21.6905 14.8962 21.391 14.7132C21.0916 14.5302 20.867 14.2806 20.7172 13.9645C20.5841 13.6318 20.5176 13.2574 20.5176 12.8415C20.5176 12.4089 20.6008 11.9431 20.7671 11.4439L21.9401 7.8253H28.9278L28.1043 10.3958C27.9878 10.7285 27.9795 10.9615 28.0793 11.0946C28.1958 11.211 28.4204 11.2859 28.7531 11.3192H36.8639L35.666 14.9877H22.4891ZM21.99 7.70052L22.3893 6.45271H29.377L28.9777 7.70052H21.99ZM22.4642 6.20315L22.8385 5.05516H29.8262L29.4519 6.20315H22.4642ZM22.9633 4.68082L23.3127 3.65762H30.3004L29.951 4.68082H22.9633ZM23.4624 3.18345L23.7619 2.26007H30.7496L30.4501 3.18345H23.4624ZM24.1612 0.987305H31.1489L30.9493 1.66112H23.9615L24.1612 0.987305Z" fill="white"/>
<path d="M14.3498 14.9877H0L2.32092 7.8253H19.4658L19.4159 7.87521C19.6987 8.2246 19.8235 8.65717 19.7902 9.17293C19.7736 9.68869 19.6738 10.2128 19.4908 10.7452C19.341 11.211 19.1164 11.6935 18.817 12.1926C18.5341 12.6918 18.1764 13.1493 17.7438 13.5652C17.3279 13.9812 16.8288 14.3222 16.2465 14.5884C15.6808 14.8546 15.0486 14.9877 14.3498 14.9877ZM20.7136 6.45271C20.4308 6.95183 20.0731 7.36777 19.6405 7.70052H2.37084L2.77014 6.45271H20.7136ZM13.9755 4.68082C13.9422 4.68082 13.9089 4.68082 13.8756 4.68082C13.8424 4.66418 13.8008 4.65586 13.7509 4.65586H10.3319L10.3069 4.68082H3.34413L3.69351 3.65762H21.4873C21.4873 3.84063 21.4706 4.01532 21.4374 4.1817C21.4207 4.34807 21.4041 4.51444 21.3874 4.68082H13.9755ZM21.1129 2.26007C21.1795 2.39317 21.2377 2.54291 21.2876 2.70928C21.3542 2.85902 21.4041 3.01707 21.4374 3.18345H3.84325L4.14272 2.26007H21.1129ZM4.34237 1.66112L4.54202 0.987305H18.8669C19.2662 0.987305 19.6072 1.05385 19.8901 1.18695C20.1895 1.30342 20.4557 1.46147 20.6887 1.66112H4.34237ZM2.845 6.20315L3.21935 5.05516H10.1821L9.80778 6.20315H2.845ZM13.7009 6.20315C14.0004 6.1366 14.2084 5.90367 14.3248 5.50437C14.3748 5.37127 14.3914 5.22154 14.3748 5.05516H21.3126L21.2627 5.22985C21.1961 5.41287 21.1296 5.58756 21.063 5.75393C20.9965 5.92031 20.9216 6.07005 20.8384 6.20315H13.7009ZM12.1037 9.72197H8.68475L8.16067 11.3192H11.6046C11.9207 11.3192 12.1703 11.236 12.3533 11.0696C12.5363 10.9032 12.6694 10.7036 12.7526 10.4707C12.8358 10.2045 12.8358 10.0131 12.7526 9.89666C12.6694 9.7802 12.4531 9.72197 12.1037 9.72197Z" fill="white"/>
</svg>
