<svg width="32" height="32" viewBox="0 0 32 32" fill="none" xmlns="http://www.w3.org/2000/svg">
<path d="M12.0257 11.9998C11.8895 10.2341 12.2975 8.46908 13.1948 6.94228C14.0921 5.41548 15.4356 4.20021 17.0445 3.46006C18.6534 2.7199 20.4504 2.49038 22.1936 2.8024C23.9369 3.11441 25.5427 3.95298 26.7949 5.20523C28.0472 6.45749 28.8858 8.06331 29.1978 9.80656C29.5098 11.5498 29.2803 13.3468 28.5401 14.9557C27.7999 16.5645 26.5847 17.908 25.0579 18.8053C23.5311 19.7026 21.766 20.1107 20.0003 19.9745" stroke="white" stroke-linecap="round" stroke-linejoin="round"/>
<path d="M29.3337 22.6665C29.3337 23.7274 28.9122 24.7448 28.1621 25.4949C27.4119 26.2451 26.3945 26.6665 25.3337 26.6665H22.667M22.667 26.6665L25.3337 23.9998M22.667 26.6665L25.3337 29.3332M2.66699 9.33317C2.66699 8.2723 3.08842 7.25489 3.83857 6.50474C4.58871 5.7546 5.60613 5.33317 6.66699 5.33317H9.33366M9.33366 5.33317L6.66699 7.99984M9.33366 5.33317L6.66699 2.6665M11.3337 29.3332C9.03512 29.3332 6.83072 28.4201 5.2054 26.7948C3.58008 25.1694 2.66699 22.965 2.66699 20.6665C2.66699 18.368 3.58008 16.1636 5.2054 14.5382C6.83072 12.9129 9.03512 11.9998 11.3337 11.9998C13.6322 11.9998 15.8366 12.9129 17.4619 14.5382C19.0872 16.1636 20.0003 18.368 20.0003 20.6665C20.0003 22.965 19.0872 25.1694 17.4619 26.7948C15.8366 28.4201 13.6322 29.3332 11.3337 29.3332Z" stroke="white" stroke-linecap="round" stroke-linejoin="round"/>
</svg>
