<svg width="64" height="64" viewBox="0 0 64 64" fill="none" xmlns="http://www.w3.org/2000/svg">
<rect width="64" height="64" rx="8" fill="white"/>
<path fill-rule="evenodd" clip-rule="evenodd" d="M20.2667 19.4987L20.272 19.504C20.7876 19.936 21.168 20.2649 21.4133 20.4907L21.5653 20.6373L21.6667 20.752C22.1787 21.4267 21.9867 22.032 21.1067 22.504C20.481 22.8017 19.8056 22.9808 19.1147 23.032C18.5493 23.032 18.352 22.824 18.352 22.824L18.2347 22.7253C17.9547 22.4987 17.632 22.2347 16.1467 19.7307C15.0942 18.184 14.0382 16.6373 12.9787 15.0907C12.5866 14.5075 12.1865 13.9296 11.7787 13.3573C11.6533 13.2453 11.656 13.2507 15.9067 20.464C16.4533 21.664 16.216 22.256 16.0933 22.5573C16.0652 22.6133 16.0471 22.6738 16.04 22.736C16.0427 23.1707 15.9173 23.4 15.352 24C14.408 25 13.984 26.1227 13.68 28.4507C13.3387 31.056 12.3787 32.896 9.71466 36.0453C8.15733 37.8907 7.90133 38.232 7.50933 38.9733C7.01333 39.9067 6.87733 40.432 6.82133 41.6133C6.76533 42.8667 6.87733 43.672 7.28 44.8667C7.632 45.912 8 46.6053 8.93866 47.9867C9.752 49.1787 10.2187 50.0667 10.2187 50.4133C10.2187 50.6853 10.272 50.688 11.5307 50.4187C14.5387 49.7733 16.9813 48.64 18.3573 47.2507C19.2053 46.3893 19.4053 45.9173 19.4133 44.736C19.4133 43.9627 19.3867 43.8027 19.168 43.36C18.8107 42.64 18.16 42.0373 16.7253 41.1093C14.8453 39.888 14.0427 38.9093 13.8213 37.5573C13.64 36.4507 13.8507 35.6693 14.888 33.6027C15.9653 31.4613 16.232 30.5493 16.4133 28.392C16.5307 26.9973 16.6933 26.448 17.1147 26.008C17.5547 25.5467 17.9493 25.392 19.04 25.2507C20.816 25.0213 21.9467 24.584 22.8747 23.7707C23.68 23.064 24.0213 22.3867 24.072 21.3627L24.1093 20.5893L23.6587 20.0907C22.0267 18.2853 6.26666 5.33334 6.16533 5.33334C6.14666 5.33334 6.68266 5.97334 7.36 6.75201C13.4 13.712 18.04 17.6187 20.2667 19.4987ZM11.1333 43.0293C11.309 42.73 11.3611 42.3739 11.2784 42.0368C11.1958 41.6997 10.9849 41.4081 10.6907 41.224C10.1067 40.856 9.2 41.0293 9.2 41.5067C9.2 41.5547 9.21155 41.6018 9.23466 41.648L9.256 41.6853C9.2771 41.7187 9.30533 41.7469 9.33866 41.768L9.41333 41.8213L9.48 41.8533C9.80266 42.0133 9.82666 42.1893 9.57066 42.552C9.312 42.92 9.33333 43.2453 9.62933 43.464C10.1067 43.8187 10.7787 43.624 11.1333 43.0293Z" fill="#FF0A6F"/>
<path d="M21.6533 9.12003C21.56 9.09336 21.6347 9.07736 21.8213 9.05069C22.48 8.95203 24.032 9.08269 25.0987 9.32536C27.592 9.88803 29.8613 11.328 32.2827 13.888L32.9253 14.568L33.8453 14.4294C37.7253 13.8374 41.6693 14.3067 44.9707 15.752C45.8773 16.152 47.3093 16.944 47.488 17.1467C47.5467 17.2107 47.648 17.6294 47.72 18.0747C47.9627 19.616 47.8427 20.7974 47.3467 21.6827C47.2826 21.7923 47.2265 21.9064 47.1787 22.024L47.144 22.12C47.0907 22.3147 47.128 22.4694 47.2427 22.7254C47.3867 23.0534 47.792 23.296 48.192 23.296C49.0133 23.296 49.8933 22.0374 50.304 20.2854L50.4667 19.592L50.7893 19.9387C52.552 21.8347 53.9387 24.424 54.176 26.264L54.24 26.744L53.944 26.3094C53.5103 25.6366 52.9374 25.0646 52.264 24.632C51.08 23.8907 49.8267 23.6374 46.5093 23.4694C43.5147 23.32 41.8187 23.0774 40.1387 22.5574C37.2773 21.672 35.8373 20.496 32.44 16.264C30.9307 14.384 29.9973 13.3467 29.072 12.5094C26.9627 10.6054 24.8907 9.61069 22.24 9.21869C22.0433 9.19309 21.8476 9.16018 21.6533 9.12003Z" fill="#FF0A6F"/>
<path d="M48.163 13.4133C48.243 12.1547 48.419 11.3253 48.7817 10.5653C48.9257 10.264 49.059 10.0213 49.0804 10.0213C49.0571 10.1914 49.0104 10.3574 48.9417 10.5147C48.6804 11.248 48.635 12.256 48.8164 13.4267C49.0484 14.9147 49.1764 15.128 50.8324 16.7333C51.6057 17.4853 52.5124 18.4347 52.8404 18.8427L53.435 19.584L52.8404 19.056C52.1097 18.4053 50.4377 17.144 50.067 16.9627C49.9987 16.9236 49.9251 16.8949 49.8484 16.8773H49.7897C49.739 16.8907 49.6964 16.9253 49.6297 16.9893C49.4884 17.1227 49.459 17.3227 49.4377 18.2667C49.411 19.7413 49.1977 20.6853 48.6857 21.632C48.411 22.144 48.3657 22.032 48.6164 21.456C48.803 21.024 48.8217 20.8373 48.8217 19.4107C48.8164 16.544 48.459 15.8533 46.355 14.6747C45.722 14.3218 45.0714 14.0013 44.4057 13.7147C44.0791 13.589 43.7611 13.442 43.4537 13.2747C43.5124 13.216 45.5604 13.784 46.387 14.088C47.6137 14.536 47.819 14.5947 47.9684 14.5387C48.067 14.504 48.1177 14.224 48.163 13.4133ZM21.4617 11.216C21.2617 13.4293 22.1764 16.3893 23.6564 18.32C24.803 19.8187 26.5764 20.9787 27.8884 21.0933C28.747 21.1653 29.003 20.9093 28.6164 20.3733C28.075 19.6267 27.4137 18.4747 27.2377 17.9813C27.0366 17.3191 26.8614 16.6492 26.7124 15.9733C26.0937 13.2453 25.4884 12.1867 24.0884 11.3787C23.5817 11.0853 22.4884 10.6987 21.8564 10.5893L21.523 10.5307L21.4617 11.216ZM46.3737 32.6907C39.467 30.0507 37.035 27.76 37.035 23.896C37.035 23.328 37.0537 22.8613 37.0804 22.8613C37.107 22.8613 37.3737 23.048 37.675 23.28C39.075 24.3467 40.643 24.8 44.9817 25.4C47.5364 25.7547 48.9764 26.04 50.3017 26.4587C54.515 27.784 57.1284 30.4747 57.747 34.144C57.9284 35.2107 57.8217 37.208 57.5284 38.2613C57.2964 39.0933 56.5897 40.592 56.403 40.648C56.3782 40.6533 56.3559 40.6204 56.3364 40.5493C56.3089 40.4411 56.2928 40.3303 56.2884 40.2187C56.2164 38.8427 55.483 37.504 54.2537 36.4987C52.8537 35.3573 50.971 34.4453 46.3737 32.6907ZM41.1897 32.3973C41.2884 32.672 41.4377 33.2987 41.523 33.784C42.0777 36.9093 40.3497 39.4347 36.9897 40.4133C36.7402 40.4775 36.4885 40.5327 36.235 40.5787C35.9222 40.6409 35.6084 40.6987 35.2937 40.752L34.6724 40.8587L33.8724 40.992C31.1257 41.424 29.899 41.7333 28.667 42.296C27.7924 42.696 26.7337 43.2933 26.8004 43.352C26.811 43.3609 26.8502 43.3582 26.9177 43.344C27.0004 43.3253 27.1177 43.2907 27.2404 43.2533C28.795 42.7333 30.523 42.4667 33.1524 42.336C33.5284 42.32 33.9257 42.296 34.299 42.272L34.795 42.2373L35.3017 42.2L35.523 42.1813L35.7844 42.1547C38.1257 41.8747 39.7497 41.2 41.011 39.9813C41.7124 39.304 42.131 38.6747 42.467 37.7813C42.6804 37.216 42.707 37.008 42.7124 36.0053C42.7124 34.9867 42.6857 34.8 42.4564 34.1733C42.1524 33.3493 41.795 32.7333 41.3417 32.248L41.0137 31.9013L41.1897 32.3973Z" fill="#FF0A6F"/>
<path d="M44.6885 39.1199C43.7711 37.2453 43.5605 35.4399 44.0618 33.7546C44.1151 33.5733 44.2031 33.4266 44.2565 33.4266C44.3305 33.4457 44.4015 33.4754 44.4671 33.5146C44.5507 33.559 44.6396 33.6124 44.7338 33.6746C45.1605 33.9413 46.0085 34.3973 48.2671 35.5679C51.0858 37.0266 52.6938 38.1546 53.7871 39.4479C54.7463 40.5865 55.3801 41.963 55.6218 43.4319C55.7818 44.3226 55.6885 46.4613 55.4485 47.3573C54.6885 50.1786 52.9285 52.3973 50.4138 53.6906C50.1773 53.8204 49.9329 53.9359 49.6805 54.0373C49.6716 54.0355 49.6742 54.0124 49.6885 53.9679L49.7205 53.8799C49.7711 53.7466 49.8645 53.5439 49.9765 53.3199C50.8245 51.6399 50.9205 50.0106 50.2805 48.1919C49.8885 47.0826 49.0911 45.7253 47.4805 43.4319C45.6085 40.7653 45.1471 40.0586 44.6885 39.1173M27.4058 45.2559C24.4991 45.7039 21.3125 47.1626 18.7498 49.2159L17.9871 49.8293L18.6538 49.9279C22.1551 50.4426 23.0991 50.9039 25.5258 53.2773C26.9231 54.6426 27.3925 54.9466 28.5525 55.2266C30.2538 55.6399 31.9311 54.8799 32.5071 53.4399C32.7631 52.7973 32.7285 51.7333 32.4351 51.1973C31.7338 49.9226 29.6885 49.5093 28.7018 50.4426C27.8778 51.2213 28.1178 52.3946 29.1418 52.5946C29.3738 52.6399 29.3685 52.6293 29.0805 52.5066C28.6325 52.3146 28.4405 52.0479 28.4351 51.6239C28.4298 50.6293 29.6298 50.0693 30.7471 50.5493C31.5631 50.8986 31.8885 51.3546 31.8885 52.1573C31.8885 53.3919 30.7818 54.3226 29.4938 54.1679C28.7455 54.0566 28.0513 53.7123 27.5098 53.1839C26.3738 51.9679 26.8165 50.0426 28.4031 49.3066C29.6111 48.7439 31.2165 48.8799 32.4618 49.6533C33.8885 50.5439 34.4991 51.3546 35.7285 54.0213C36.1311 54.8879 36.6458 55.8666 36.8778 56.1946C38.0458 57.8479 39.4405 58.6639 41.1258 58.6639C42.0538 58.6639 42.7525 58.5039 43.6325 58.0853C44.2831 57.7759 45.2085 57.1893 45.1418 57.1253C44.9355 57.1611 44.7341 57.221 44.5418 57.3039C42.7018 57.9839 40.8351 57.9359 39.7471 57.1813C39.0645 56.7066 38.5151 55.7626 38.2298 54.5813C38.0976 53.9133 37.9776 53.243 37.8698 52.5706C37.4938 50.2879 37.1311 49.2639 36.2858 48.0879C35.4218 46.8826 33.7605 45.8693 31.9018 45.4213C30.7418 45.1386 28.6565 45.0613 27.4058 45.2559Z" fill="#FF0A6F"/>
<path fill-rule="evenodd" clip-rule="evenodd" d="M23.3389 27.616C23.5896 26.736 24.4003 25.8986 25.2323 25.656C25.7629 25.5013 26.8589 25.6 27.3736 25.848C28.3736 26.3306 29.0963 27.4293 28.9416 28.2213C28.7496 29.1866 27.0963 29.9573 25.1976 29.9706C24.2296 29.9786 23.8696 29.8533 23.5016 29.384C23.2723 29.0933 23.1869 28.1493 23.3389 27.616ZM27.1203 26.1946C27.6163 26.4826 27.7469 26.9093 27.4536 27.304C27.2509 27.576 26.6269 27.832 26.1683 27.832C25.4856 27.832 24.7363 27.3706 24.7363 26.952C24.7363 26.0986 26.1709 25.6453 27.1203 26.1946Z" fill="#FF0A6F"/>
</svg>
